<mxfile host="app.diagrams.net" modified="2021-08-04T06:59:05.579Z" agent="5.0 (Macintosh; Intel Mac OS X 10_15_7) AppleWebKit/537.36 (KHTML, like Gecko) Chrome/91.0.4472.114 Safari/537.36" etag="VpgXPkmUgYLET2AopQSF" version="14.8.6" type="github">
  <diagram id="prtHgNgQTEPvFCAcTncT" name="Page-1">
    <mxGraphModel dx="1113" dy="762" grid="1" gridSize="10" guides="1" tooltips="1" connect="1" arrows="1" fold="1" page="1" pageScale="1" pageWidth="827" pageHeight="1169" math="0" shadow="0">
      <root>
        <mxCell id="0" />
        <mxCell id="1" parent="0" />
        <mxCell id="R3v2qyALq3uWuYvcU5sD-100" value="" style="rounded=0;whiteSpace=wrap;html=1;dashed=1;" parent="1" vertex="1">
          <mxGeometry x="40" y="500" width="320" height="200" as="geometry" />
        </mxCell>
        <mxCell id="R3v2qyALq3uWuYvcU5sD-67" value="" style="rounded=0;whiteSpace=wrap;html=1;dashed=1;" parent="1" vertex="1">
          <mxGeometry x="40" y="140" width="357" height="240" as="geometry" />
        </mxCell>
        <mxCell id="R3v2qyALq3uWuYvcU5sD-63" style="edgeStyle=orthogonalEdgeStyle;rounded=0;orthogonalLoop=1;jettySize=auto;html=1;entryX=0;entryY=0.5;entryDx=0;entryDy=0;" parent="1" source="R3v2qyALq3uWuYvcU5sD-54" target="R3v2qyALq3uWuYvcU5sD-62" edge="1">
          <mxGeometry relative="1" as="geometry" />
        </mxCell>
        <mxCell id="R3v2qyALq3uWuYvcU5sD-65" style="edgeStyle=orthogonalEdgeStyle;rounded=0;orthogonalLoop=1;jettySize=auto;html=1;entryX=0;entryY=0.5;entryDx=0;entryDy=0;" parent="1" source="R3v2qyALq3uWuYvcU5sD-54" target="R3v2qyALq3uWuYvcU5sD-61" edge="1">
          <mxGeometry relative="1" as="geometry" />
        </mxCell>
        <mxCell id="R3v2qyALq3uWuYvcU5sD-66" style="edgeStyle=orthogonalEdgeStyle;rounded=0;orthogonalLoop=1;jettySize=auto;html=1;" parent="1" source="R3v2qyALq3uWuYvcU5sD-54" target="R3v2qyALq3uWuYvcU5sD-59" edge="1">
          <mxGeometry relative="1" as="geometry" />
        </mxCell>
        <mxCell id="R3v2qyALq3uWuYvcU5sD-95" value="系统数据" style="edgeLabel;html=1;align=center;verticalAlign=middle;resizable=0;points=[];fontSize=8;" parent="R3v2qyALq3uWuYvcU5sD-66" vertex="1" connectable="0">
          <mxGeometry x="-0.0975" y="2" relative="1" as="geometry">
            <mxPoint as="offset" />
          </mxGeometry>
        </mxCell>
        <mxCell id="R3v2qyALq3uWuYvcU5sD-54" value="GM系统" style="rounded=1;whiteSpace=wrap;html=1;" parent="1" vertex="1">
          <mxGeometry x="70" y="289.87" width="90" height="40" as="geometry" />
        </mxCell>
        <mxCell id="R3v2qyALq3uWuYvcU5sD-59" value="&lt;span style=&quot;background-color: rgb(248 , 249 , 250)&quot;&gt;Mysql&lt;/span&gt;" style="aspect=fixed;perimeter=ellipsePerimeter;html=1;align=center;shadow=0;dashed=0;spacingTop=3;image;image=img/lib/active_directory/database_partition_4.svg;" parent="1" vertex="1">
          <mxGeometry x="90" y="158.25" width="50" height="37" as="geometry" />
        </mxCell>
        <mxCell id="R3v2qyALq3uWuYvcU5sD-92" style="edgeStyle=orthogonalEdgeStyle;rounded=0;orthogonalLoop=1;jettySize=auto;html=1;fontSize=8;entryX=0;entryY=0.5;entryDx=0;entryDy=0;" parent="1" source="R3v2qyALq3uWuYvcU5sD-61" target="roKIbYvrWpfoMGOtCMAC-12" edge="1">
          <mxGeometry relative="1" as="geometry">
            <mxPoint x="460" y="310" as="targetPoint" />
          </mxGeometry>
        </mxCell>
        <mxCell id="R3v2qyALq3uWuYvcU5sD-94" value="数据获取" style="edgeLabel;html=1;align=center;verticalAlign=middle;resizable=0;points=[];fontSize=8;" parent="R3v2qyALq3uWuYvcU5sD-92" vertex="1" connectable="0">
          <mxGeometry x="-0.5356" relative="1" as="geometry">
            <mxPoint x="-11" as="offset" />
          </mxGeometry>
        </mxCell>
        <mxCell id="R3v2qyALq3uWuYvcU5sD-107" style="edgeStyle=orthogonalEdgeStyle;rounded=0;orthogonalLoop=1;jettySize=auto;html=1;fontSize=8;entryX=0.1;entryY=0.2;entryDx=0;entryDy=0;entryPerimeter=0;" parent="1" target="R3v2qyALq3uWuYvcU5sD-101" edge="1">
          <mxGeometry relative="1" as="geometry">
            <mxPoint x="285" y="366" as="sourcePoint" />
          </mxGeometry>
        </mxCell>
        <mxCell id="R3v2qyALq3uWuYvcU5sD-108" value="Http协议请求" style="edgeLabel;html=1;align=center;verticalAlign=middle;resizable=0;points=[];fontSize=8;" parent="R3v2qyALq3uWuYvcU5sD-107" vertex="1" connectable="0">
          <mxGeometry x="0.0738" y="-2" relative="1" as="geometry">
            <mxPoint x="-3" y="12" as="offset" />
          </mxGeometry>
        </mxCell>
        <mxCell id="R3v2qyALq3uWuYvcU5sD-61" value="详情展示/功能操作" style="rounded=1;whiteSpace=wrap;html=1;" parent="1" vertex="1">
          <mxGeometry x="260" y="326.25" width="90" height="40" as="geometry" />
        </mxCell>
        <mxCell id="R3v2qyALq3uWuYvcU5sD-62" value="列表展示" style="rounded=1;whiteSpace=wrap;html=1;" parent="1" vertex="1">
          <mxGeometry x="260" y="247.25" width="90" height="40" as="geometry" />
        </mxCell>
        <mxCell id="R3v2qyALq3uWuYvcU5sD-70" value="" style="rounded=0;whiteSpace=wrap;html=1;dashed=1;" parent="1" vertex="1">
          <mxGeometry x="660" y="189.87" width="393" height="240" as="geometry" />
        </mxCell>
        <mxCell id="R3v2qyALq3uWuYvcU5sD-71" value="数数后台" style="pointerEvents=1;shadow=0;dashed=0;html=1;strokeColor=none;labelPosition=center;verticalLabelPosition=bottom;verticalAlign=top;align=center;fillColor=#515151;shape=mxgraph.mscae.enterprise.database_server" parent="1" vertex="1">
          <mxGeometry x="1007" y="359.87" width="30.4" height="40" as="geometry" />
        </mxCell>
        <mxCell id="R3v2qyALq3uWuYvcU5sD-78" style="edgeStyle=orthogonalEdgeStyle;rounded=0;orthogonalLoop=1;jettySize=auto;html=1;entryX=0.5;entryY=0;entryDx=0;entryDy=0;exitX=0.5;exitY=1;exitDx=0;exitDy=0;" parent="1" source="R3v2qyALq3uWuYvcU5sD-74" target="R3v2qyALq3uWuYvcU5sD-75" edge="1">
          <mxGeometry relative="1" as="geometry">
            <mxPoint x="870" y="337.12" as="targetPoint" />
          </mxGeometry>
        </mxCell>
        <mxCell id="R3v2qyALq3uWuYvcU5sD-84" value="脚本写入" style="edgeLabel;html=1;align=center;verticalAlign=middle;resizable=0;points=[];" parent="R3v2qyALq3uWuYvcU5sD-78" vertex="1" connectable="0">
          <mxGeometry x="0.154" relative="1" as="geometry">
            <mxPoint x="11" y="-1" as="offset" />
          </mxGeometry>
        </mxCell>
        <mxCell id="R3v2qyALq3uWuYvcU5sD-80" style="edgeStyle=orthogonalEdgeStyle;rounded=0;orthogonalLoop=1;jettySize=auto;html=1;entryX=0.5;entryY=0;entryDx=0;entryDy=0;entryPerimeter=0;exitX=0.5;exitY=1;exitDx=0;exitDy=0;" parent="1" source="R3v2qyALq3uWuYvcU5sD-74" target="R3v2qyALq3uWuYvcU5sD-71" edge="1">
          <mxGeometry relative="1" as="geometry" />
        </mxCell>
        <mxCell id="R3v2qyALq3uWuYvcU5sD-85" value="入库" style="edgeLabel;html=1;align=center;verticalAlign=middle;resizable=0;points=[];" parent="R3v2qyALq3uWuYvcU5sD-80" vertex="1" connectable="0">
          <mxGeometry x="-0.0237" y="2" relative="1" as="geometry">
            <mxPoint as="offset" />
          </mxGeometry>
        </mxCell>
        <mxCell id="R3v2qyALq3uWuYvcU5sD-74" value="落地Log" style="shape=image;html=1;verticalAlign=top;verticalLabelPosition=bottom;labelBackgroundColor=#ffffff;imageAspect=0;aspect=fixed;image=https://cdn0.iconfinder.com/data/icons/simpline-mix/64/simpline_4-128.png" parent="1" vertex="1">
          <mxGeometry x="827" y="199.25" width="48" height="48" as="geometry" />
        </mxCell>
        <mxCell id="R3v2qyALq3uWuYvcU5sD-75" value="&lt;span style=&quot;color: rgb(0 , 0 , 0) ; font-family: &amp;#34;helvetica&amp;#34; ; font-size: 12px ; font-style: normal ; font-weight: 400 ; letter-spacing: normal ; text-align: center ; text-indent: 0px ; text-transform: none ; word-spacing: 0px ; background-color: rgb(248 , 249 , 250) ; display: inline ; float: none&quot;&gt;ClickHouse2&lt;/span&gt;" style="aspect=fixed;perimeter=ellipsePerimeter;html=1;align=center;shadow=0;dashed=0;spacingTop=3;image;image=img/lib/active_directory/database_partition_4.svg;" parent="1" vertex="1">
          <mxGeometry x="680" y="359.87" width="50" height="37" as="geometry" />
        </mxCell>
        <mxCell id="R3v2qyALq3uWuYvcU5sD-91" style="edgeStyle=orthogonalEdgeStyle;rounded=0;orthogonalLoop=1;jettySize=auto;html=1;entryX=0;entryY=0.5;entryDx=0;entryDy=0;fontSize=8;" parent="1" source="R3v2qyALq3uWuYvcU5sD-62" target="roKIbYvrWpfoMGOtCMAC-12" edge="1">
          <mxGeometry relative="1" as="geometry" />
        </mxCell>
        <mxCell id="R3v2qyALq3uWuYvcU5sD-93" value="数据获取" style="edgeLabel;html=1;align=center;verticalAlign=middle;resizable=0;points=[];fontSize=8;" parent="R3v2qyALq3uWuYvcU5sD-91" vertex="1" connectable="0">
          <mxGeometry x="-0.5065" y="-2" relative="1" as="geometry">
            <mxPoint x="-15" y="-2" as="offset" />
          </mxGeometry>
        </mxCell>
        <mxCell id="roKIbYvrWpfoMGOtCMAC-14" value="http协议" style="edgeLabel;html=1;align=center;verticalAlign=middle;resizable=0;points=[];fontSize=8;" vertex="1" connectable="0" parent="R3v2qyALq3uWuYvcU5sD-91">
          <mxGeometry x="0.5619" y="1" relative="1" as="geometry">
            <mxPoint as="offset" />
          </mxGeometry>
        </mxCell>
        <mxCell id="R3v2qyALq3uWuYvcU5sD-97" value="GM系统" style="text;html=1;strokeColor=none;fillColor=none;align=center;verticalAlign=middle;whiteSpace=wrap;rounded=0;dashed=1;fontSize=8;" parent="1" vertex="1">
          <mxGeometry x="178.5" y="120" width="80" height="20" as="geometry" />
        </mxCell>
        <mxCell id="R3v2qyALq3uWuYvcU5sD-98" value="数据源" style="text;html=1;strokeColor=none;fillColor=none;align=center;verticalAlign=middle;whiteSpace=wrap;rounded=0;dashed=1;fontSize=8;" parent="1" vertex="1">
          <mxGeometry x="816.5" y="175.25" width="80" height="20" as="geometry" />
        </mxCell>
        <mxCell id="R3v2qyALq3uWuYvcU5sD-99" value="平台" style="text;html=1;strokeColor=none;fillColor=none;align=center;verticalAlign=middle;whiteSpace=wrap;rounded=0;dashed=1;fontSize=8;" parent="1" vertex="1">
          <mxGeometry x="170" y="480" width="60" height="20" as="geometry" />
        </mxCell>
        <mxCell id="R3v2qyALq3uWuYvcU5sD-121" style="edgeStyle=orthogonalEdgeStyle;rounded=0;orthogonalLoop=1;jettySize=auto;html=1;fontSize=8;exitX=0.9;exitY=0.2;exitDx=0;exitDy=0;exitPerimeter=0;" parent="1" source="R3v2qyALq3uWuYvcU5sD-101" edge="1">
          <mxGeometry relative="1" as="geometry">
            <mxPoint x="323" y="368" as="targetPoint" />
            <Array as="points">
              <mxPoint x="323" y="500" />
            </Array>
          </mxGeometry>
        </mxCell>
        <mxCell id="R3v2qyALq3uWuYvcU5sD-122" value="数据返回" style="edgeLabel;html=1;align=center;verticalAlign=middle;resizable=0;points=[];fontSize=8;" parent="R3v2qyALq3uWuYvcU5sD-121" vertex="1" connectable="0">
          <mxGeometry x="0.3722" relative="1" as="geometry">
            <mxPoint y="10" as="offset" />
          </mxGeometry>
        </mxCell>
        <mxCell id="R3v2qyALq3uWuYvcU5sD-101" value="" style="html=1;dashed=0;whitespace=wrap;fillColor=#2875E2;strokeColor=#ffffff;points=[[0.005,0.63,0],[0.1,0.2,0],[0.9,0.2,0],[0.5,0,0],[0.995,0.63,0],[0.72,0.99,0],[0.5,1,0],[0.28,0.99,0]];shape=mxgraph.kubernetes.icon;prIcon=api;fontSize=8;" parent="1" vertex="1">
          <mxGeometry x="280" y="520" width="50" height="48" as="geometry" />
        </mxCell>
        <mxCell id="R3v2qyALq3uWuYvcU5sD-110" style="edgeStyle=orthogonalEdgeStyle;rounded=0;orthogonalLoop=1;jettySize=auto;html=1;fontSize=8;entryX=0.005;entryY=0.63;entryDx=0;entryDy=0;entryPerimeter=0;exitX=0.5;exitY=0;exitDx=0;exitDy=0;exitPerimeter=0;" parent="1" source="R3v2qyALq3uWuYvcU5sD-105" target="R3v2qyALq3uWuYvcU5sD-101" edge="1">
          <mxGeometry relative="1" as="geometry" />
        </mxCell>
        <mxCell id="R3v2qyALq3uWuYvcU5sD-116" value="API服务提供" style="edgeLabel;html=1;align=center;verticalAlign=middle;resizable=0;points=[];fontSize=8;" parent="R3v2qyALq3uWuYvcU5sD-110" vertex="1" connectable="0">
          <mxGeometry x="-0.0605" relative="1" as="geometry">
            <mxPoint x="20" as="offset" />
          </mxGeometry>
        </mxCell>
        <mxCell id="R3v2qyALq3uWuYvcU5sD-105" value="" style="points=[[0,0,0],[0.25,0,0],[0.5,0,0],[0.75,0,0],[1,0,0],[0,1,0],[0.25,1,0],[0.5,1,0],[0.75,1,0],[1,1,0],[0,0.25,0],[0,0.5,0],[0,0.75,0],[1,0.25,0],[1,0.5,0],[1,0.75,0]];outlineConnect=0;fontColor=#232F3E;gradientColor=#4AB29A;gradientDirection=north;fillColor=#116D5B;strokeColor=#ffffff;dashed=0;verticalLabelPosition=bottom;verticalAlign=top;align=center;html=1;fontSize=12;fontStyle=0;aspect=fixed;shape=mxgraph.aws4.resourceIcon;resIcon=mxgraph.aws4.database_migration_service;" parent="1" vertex="1">
          <mxGeometry x="130" y="580" width="40" height="40" as="geometry" />
        </mxCell>
        <mxCell id="R3v2qyALq3uWuYvcU5sD-109" value="内部业务处理" style="text;html=1;strokeColor=none;fillColor=none;align=center;verticalAlign=middle;whiteSpace=wrap;rounded=0;dashed=1;fontSize=8;" parent="1" vertex="1">
          <mxGeometry x="110" y="620" width="80" height="20" as="geometry" />
        </mxCell>
        <mxCell id="roKIbYvrWpfoMGOtCMAC-13" style="edgeStyle=orthogonalEdgeStyle;rounded=0;orthogonalLoop=1;jettySize=auto;html=1;fontSize=8;" edge="1" parent="1" source="roKIbYvrWpfoMGOtCMAC-12" target="R3v2qyALq3uWuYvcU5sD-70">
          <mxGeometry relative="1" as="geometry" />
        </mxCell>
        <mxCell id="roKIbYvrWpfoMGOtCMAC-12" value="数据业务服务" style="rounded=1;whiteSpace=wrap;html=1;dashed=1;fontSize=8;" vertex="1" parent="1">
          <mxGeometry x="510" y="279.87" width="120" height="60" as="geometry" />
        </mxCell>
      </root>
    </mxGraphModel>
  </diagram>
</mxfile>
